Release Title: Wizards of Waverly Place The Movie 2009

Release Date: 28 August 2009 (USA)

Film Length: 1:33:58

Tagline: Family vacations can be tricky.

Genres: Adventure | Comedy | Drama | Family | Fantasy 

Storyline: Powerful magic cast by Alex spells trouble for the Russo's. The kids must go on an adventure to save their family and their existence.


Selena Gomez 		... Alex Russo
David Henrie 		... Justin Russo
Jake T. Austin 		... Max Russo
Jennifer Stone 		... Harper Finkle
Maria Canals-Barrera 	... Theresa Russo
David DeLuise 		... Jerry Russo
Steve Valentine 	... Archie
Xavier Torres 		... Javier
Jennifer Alden 		... Giselle
Jazmín Caratini 	... The Bartender
Jonathan Dwayne 	... Activities Director
Marisé Alvarez 		... Greeter (as Marise Alvarez)
Bettina Mercado 	... Woman in Village #1
Veraalba Santa 		... Woman in Village #2
Gabriela Rosario 	... Village Girl (as Gabriela Alejandra Rosario)


Genres: Adventure | Comedy | Drama | Family | Fantasy
Format: Matroska
File size: 2.28 GiB
Duration: 1h 33mn
Overall bit rate: 3 477 Kbps
Movie name: Wizards Of Waverly Place The Movie 2009 720p HDTV Dual Audio [Eng-Hindi]~Alan
Language: English and Hindi
Encoder: Alan

Video
ID : 1
Format : AVC
Format/Info : Advanced Video Codec
Format profile : High@L4.1
Format settings, CABAC : Yes
Format settings, ReFrames : 3 frames
Muxing mode : Header stripping
Codec ID : V_MPEG4/ISO/AVC
Duration : 1h 33mn
Bit rate mode : Variable
Bit rate : 2 901 Kbps
Maximum bit rate : 40.0 Mbps
Width : 1 280 pixels
Height : 720 pixels
Display aspect ratio : 16:9
Frame rate : 23.976 fps
Color space : YUV
Chroma subsampling : 4:2:0
Bit depth : 8 bits
Scan type : Progressive
Bits/(Pixel*Frame) : 0.131
Stream size : 1.86 GiB (81%)
Writing library : x264 core 120 r2164 da19765
Language : English

Audio #1
ID : 2
Format : AC-3
Format/Info : Audio Coding 3
Mode extension : CM (complete main)
Muxing mode : Header stripping
Codec ID : A_AC3
Duration : 1h 33mn
Bit rate mode : Constant
Bit rate : 384 Kbps
Channel(s) : 6 channels
Channel positions : Front: L C R, Side: L R, LFE
Sampling rate : 48.0 KHz
Bit depth : 16 bits
Compression mode : Lossy
Stream size : 258 MiB (11%)
Title : Alan_English 5.1
Language : English

Audio #2
ID : 3
Format : AC-3
Format/Info : Audio Coding 3
Mode extension : CM (complete main)
Muxing mode : Header stripping
Codec ID : A_AC3
Duration : 1h 33mn
Bit rate mode : Constant
Bit rate : 192 Kbps
Channel(s) : 2 channels
Channel positions : Front: L R
Sampling rate : 48.0 KHz
Bit depth : 16 bits
Compression mode : Lossy
Delay relative to video : 22ms
Stream size : 129 MiB (6%)
Title : Alan_Hindi
Language : Hindi